<?xml version="1.0" encoding="utf-8" standalone="no"?>
<!DOCTYPE svg PUBLIC "-//W3C//DTD SVG 1.1//EN"
  "http://www.w3.org/Graphics/SVG/1.1/DTD/svg11.dtd">
<svg xmlns:xlink="http://www.w3.org/1999/xlink" width="480.838667pt" height="327.010125pt" viewBox="0 0 480.838667 327.010125" xmlns="http://www.w3.org/2000/svg" version="1.1">
 <metadata>
  <rdf:RDF xmlns:dc="http://purl.org/dc/elements/1.1/" xmlns:cc="http://creativecommons.org/ns#" xmlns:rdf="http://www.w3.org/1999/02/22-rdf-syntax-ns#">
   <cc:Work>
    <dc:type rdf:resource="http://purl.org/dc/dcmitype/StillImage"/>
    <dc:date>2025-01-28T18:58:16.006431</dc:date>
    <dc:format>image/svg+xml</dc:format>
    <dc:creator>
     <cc:Agent>
      <dc:title>Matplotlib v3.7.1, https://matplotlib.org/</dc:title>
     </cc:Agent>
    </dc:creator>
   </cc:Work>
  </rdf:RDF>
 </metadata>
 <defs>
  <style type="text/css">*{stroke-linejoin: round; stroke-linecap: butt}</style>
 </defs>
 <g id="figure_1">
  <g id="patch_1">
   <path d="M -0 327.010125 
L 480.838667 327.010125 
L 480.838667 0 
L -0 0 
z
" style="fill: #ffffff"/>
  </g>
  <g id="axes_1">
   <g id="patch_2">
    <path d="M 43.642188 288.432 
L 309.754187 288.432 
L 309.754187 22.32 
L 43.642188 22.32 
z
" style="fill: #ffffff"/>
   </g>
   <g id="PolyCollection_1">
    <path d="M 43.642188 242.357186 
L 43.642188 334.506814 
L 309.754187 68.394814 
L 309.754187 -23.754814 
L 309.754187 -23.754814 
L 43.642188 242.357186 
z
" clip-path="url(#pefbaa149fc)" style="fill: #d3d3d3; fill-opacity: 0.5; stroke: #d3d3d3; stroke-opacity: 0.5"/>
   </g>
   <g id="matplotlib.axis_1">
    <g id="xtick_1">
     <g id="line2d_1">
      <defs>
       <path id="m041bd356b9" d="M 0 0 
L 0 3.5 
" style="stroke: #000000; stroke-width: 0.8"/>
      </defs>
      <g>
       <use xlink:href="#m041bd356b9" x="56.692879" y="288.432" style="stroke: #000000; stroke-width: 0.8"/>
      </g>
     </g>
     <g id="text_1">
      <!-- −4 -->
      <g transform="translate(49.321785 303.030437) scale(0.1 -0.1)">
       <defs>
        <path id="DejaVuSans-2212" d="M 678 2272 
L 4684 2272 
L 4684 1741 
L 678 1741 
L 678 2272 
z
" transform="scale(0.015625)"/>
        <path id="DejaVuSans-34" d="M 2419 4116 
L 825 1625 
L 2419 1625 
L 2419 4116 
z
M 2253 4666 
L 3047 4666 
L 3047 1625 
L 3713 1625 
L 3713 1100 
L 3047 1100 
L 3047 0 
L 2419 0 
L 2419 1100 
L 313 1100 
L 313 1709 
L 2253 4666 
z
" transform="scale(0.015625)"/>
       </defs>
       <use xlink:href="#DejaVuSans-2212"/>
       <use xlink:href="#DejaVuSans-34" x="83.789062"/>
      </g>
     </g>
    </g>
    <g id="xtick_2">
     <g id="line2d_2">
      <g>
       <use xlink:href="#m041bd356b9" x="102.767693" y="288.432" style="stroke: #000000; stroke-width: 0.8"/>
      </g>
     </g>
     <g id="text_2">
      <!-- −2 -->
      <g transform="translate(95.396599 303.030437) scale(0.1 -0.1)">
       <defs>
        <path id="DejaVuSans-32" d="M 1228 531 
L 3431 531 
L 3431 0 
L 469 0 
L 469 531 
Q 828 903 1448 1529 
Q 2069 2156 2228 2338 
Q 2531 2678 2651 2914 
Q 2772 3150 2772 3378 
Q 2772 3750 2511 3984 
Q 2250 4219 1831 4219 
Q 1534 4219 1204 4116 
Q 875 4013 500 3803 
L 500 4441 
Q 881 4594 1212 4672 
Q 1544 4750 1819 4750 
Q 2544 4750 2975 4387 
Q 3406 4025 3406 3419 
Q 3406 3131 3298 2873 
Q 3191 2616 2906 2266 
Q 2828 2175 2409 1742 
Q 1991 1309 1228 531 
z
" transform="scale(0.015625)"/>
       </defs>
       <use xlink:href="#DejaVuSans-2212"/>
       <use xlink:href="#DejaVuSans-32" x="83.789062"/>
      </g>
     </g>
    </g>
    <g id="xtick_3">
     <g id="line2d_3">
      <g>
       <use xlink:href="#m041bd356b9" x="148.842507" y="288.432" style="stroke: #000000; stroke-width: 0.8"/>
      </g>
     </g>
     <g id="text_3">
      <!-- 0 -->
      <g transform="translate(145.661257 303.030437) scale(0.1 -0.1)">
       <defs>
        <path id="DejaVuSans-30" d="M 2034 4250 
Q 1547 4250 1301 3770 
Q 1056 3291 1056 2328 
Q 1056 1369 1301 889 
Q 1547 409 2034 409 
Q 2525 409 2770 889 
Q 3016 1369 3016 2328 
Q 3016 3291 2770 3770 
Q 2525 4250 2034 4250 
z
M 2034 4750 
Q 2819 4750 3233 4129 
Q 3647 3509 3647 2328 
Q 3647 1150 3233 529 
Q 2819 -91 2034 -91 
Q 1250 -91 836 529 
Q 422 1150 422 2328 
Q 422 3509 836 4129 
Q 1250 4750 2034 4750 
z
" transform="scale(0.015625)"/>
       </defs>
       <use xlink:href="#DejaVuSans-30"/>
      </g>
     </g>
    </g>
    <g id="xtick_4">
     <g id="line2d_4">
      <g>
       <use xlink:href="#m041bd356b9" x="194.917321" y="288.432" style="stroke: #000000; stroke-width: 0.8"/>
      </g>
     </g>
     <g id="text_4">
      <!-- 2 -->
      <g transform="translate(191.736071 303.030437) scale(0.1 -0.1)">
       <use xlink:href="#DejaVuSans-32"/>
      </g>
     </g>
    </g>
    <g id="xtick_5">
     <g id="line2d_5">
      <g>
       <use xlink:href="#m041bd356b9" x="240.992135" y="288.432" style="stroke: #000000; stroke-width: 0.8"/>
      </g>
     </g>
     <g id="text_5">
      <!-- 4 -->
      <g transform="translate(237.810885 303.030437) scale(0.1 -0.1)">
       <use xlink:href="#DejaVuSans-34"/>
      </g>
     </g>
    </g>
    <g id="xtick_6">
     <g id="line2d_6">
      <g>
       <use xlink:href="#m041bd356b9" x="287.066949" y="288.432" style="stroke: #000000; stroke-width: 0.8"/>
      </g>
     </g>
     <g id="text_6">
      <!-- 6 -->
      <g transform="translate(283.885699 303.030437) scale(0.1 -0.1)">
       <defs>
        <path id="DejaVuSans-36" d="M 2113 2584 
Q 1688 2584 1439 2293 
Q 1191 2003 1191 1497 
Q 1191 994 1439 701 
Q 1688 409 2113 409 
Q 2538 409 2786 701 
Q 3034 994 3034 1497 
Q 3034 2003 2786 2293 
Q 2538 2584 2113 2584 
z
M 3366 4563 
L 3366 3988 
Q 3128 4100 2886 4159 
Q 2644 4219 2406 4219 
Q 1781 4219 1451 3797 
Q 1122 3375 1075 2522 
Q 1259 2794 1537 2939 
Q 1816 3084 2150 3084 
Q 2853 3084 3261 2657 
Q 3669 2231 3669 1497 
Q 3669 778 3244 343 
Q 2819 -91 2113 -91 
Q 1303 -91 875 529 
Q 447 1150 447 2328 
Q 447 3434 972 4092 
Q 1497 4750 2381 4750 
Q 2619 4750 2861 4703 
Q 3103 4656 3366 4563 
z
" transform="scale(0.015625)"/>
       </defs>
       <use xlink:href="#DejaVuSans-36"/>
      </g>
     </g>
    </g>
    <g id="text_7">
     <!-- $\Delta\Delta G_{exp} [kcal/mol]$ -->
     <g transform="translate(134.348187 316.710125) scale(0.1 -0.1)">
      <defs>
       <path id="DejaVuSans-394" d="M 2188 4044 
L 906 525 
L 3472 525 
L 2188 4044 
z
M 50 0 
L 1831 4666 
L 2547 4666 
L 4325 0 
L 50 0 
z
" transform="scale(0.015625)"/>
       <path id="DejaVuSans-Oblique-47" d="M 3494 697 
L 3738 1919 
L 2700 1919 
L 2797 2438 
L 4453 2438 
L 4050 384 
Q 3634 156 3143 32 
Q 2653 -91 2156 -91 
Q 1278 -91 783 396 
Q 288 884 288 1753 
Q 288 2475 589 3126 
Q 891 3778 1422 4213 
Q 1756 4484 2153 4617 
Q 2550 4750 3034 4750 
Q 3472 4750 3873 4639 
Q 4275 4528 4641 4306 
L 4513 3634 
Q 4231 3928 3853 4083 
Q 3475 4238 3047 4238 
Q 2550 4238 2172 4048 
Q 1794 3859 1497 3463 
Q 1244 3125 1098 2667 
Q 953 2209 953 1734 
Q 953 1081 1287 751 
Q 1622 422 2284 422 
Q 2616 422 2925 492 
Q 3234 563 3494 697 
z
" transform="scale(0.015625)"/>
       <path id="DejaVuSans-Oblique-65" d="M 3078 2063 
Q 3088 2113 3092 2166 
Q 3097 2219 3097 2272 
Q 3097 2653 2873 2875 
Q 2650 3097 2266 3097 
Q 1838 3097 1509 2826 
Q 1181 2556 1013 2059 
L 3078 2063 
z
M 3578 1613 
L 903 1613 
Q 884 1494 878 1425 
Q 872 1356 872 1306 
Q 872 872 1139 634 
Q 1406 397 1894 397 
Q 2269 397 2603 481 
Q 2938 566 3225 728 
L 3116 159 
Q 2806 34 2476 -28 
Q 2147 -91 1806 -91 
Q 1078 -91 686 257 
Q 294 606 294 1247 
Q 294 1794 489 2264 
Q 684 2734 1063 3103 
Q 1306 3334 1642 3459 
Q 1978 3584 2356 3584 
Q 2950 3584 3301 3228 
Q 3653 2872 3653 2272 
Q 3653 2128 3634 1964 
Q 3616 1800 3578 1613 
z
" transform="scale(0.015625)"/>
       <path id="DejaVuSans-Oblique-78" d="M 3841 3500 
L 2234 1784 
L 3219 0 
L 2559 0 
L 1819 1388 
L 531 0 
L -166 0 
L 1556 1844 
L 641 3500 
L 1300 3500 
L 1972 2234 
L 3144 3500 
L 3841 3500 
z
" transform="scale(0.015625)"/>
       <path id="DejaVuSans-Oblique-70" d="M 3175 2156 
Q 3175 2616 2975 2859 
Q 2775 3103 2400 3103 
Q 2144 3103 1911 2972 
Q 1678 2841 1497 2591 
Q 1319 2344 1212 1994 
Q 1106 1644 1106 1300 
Q 1106 863 1306 627 
Q 1506 391 1875 391 
Q 2147 391 2380 519 
Q 2613 647 2778 891 
Q 2956 1147 3065 1494 
Q 3175 1841 3175 2156 
z
M 1394 2969 
Q 1625 3272 1939 3428 
Q 2253 3584 2638 3584 
Q 3175 3584 3472 3232 
Q 3769 2881 3769 2247 
Q 3769 1728 3584 1258 
Q 3400 788 3053 416 
Q 2822 169 2531 39 
Q 2241 -91 1919 -91 
Q 1547 -91 1294 64 
Q 1041 219 916 525 
L 556 -1331 
L -19 -1331 
L 922 3500 
L 1497 3500 
L 1394 2969 
z
" transform="scale(0.015625)"/>
       <path id="DejaVuSans-5b" d="M 550 4863 
L 1875 4863 
L 1875 4416 
L 1125 4416 
L 1125 -397 
L 1875 -397 
L 1875 -844 
L 550 -844 
L 550 4863 
z
" transform="scale(0.015625)"/>
       <path id="DejaVuSans-Oblique-6b" d="M 1172 4863 
L 1747 4863 
L 1197 2028 
L 3169 3500 
L 3916 3500 
L 1716 1825 
L 3322 0 
L 2625 0 
L 1131 1709 
L 800 0 
L 225 0 
L 1172 4863 
z
" transform="scale(0.015625)"/>
       <path id="DejaVuSans-Oblique-63" d="M 3431 3366 
L 3316 2797 
Q 3109 2947 2876 3022 
Q 2644 3097 2394 3097 
Q 2119 3097 1870 3000 
Q 1622 2903 1453 2725 
Q 1184 2453 1037 2087 
Q 891 1722 891 1331 
Q 891 859 1127 628 
Q 1363 397 1844 397 
Q 2081 397 2348 469 
Q 2616 541 2906 684 
L 2797 116 
Q 2547 13 2283 -39 
Q 2019 -91 1741 -91 
Q 1044 -91 669 257 
Q 294 606 294 1253 
Q 294 1797 489 2255 
Q 684 2713 1069 3078 
Q 1331 3328 1684 3456 
Q 2038 3584 2456 3584 
Q 2700 3584 2940 3529 
Q 3181 3475 3431 3366 
z
" transform="scale(0.015625)"/>
       <path id="DejaVuSans-Oblique-61" d="M 3438 1997 
L 3047 0 
L 2472 0 
L 2578 531 
Q 2325 219 2001 64 
Q 1678 -91 1281 -91 
Q 834 -91 548 182 
Q 263 456 263 884 
Q 263 1497 752 1853 
Q 1241 2209 2100 2209 
L 2900 2209 
L 2931 2363 
Q 2938 2388 2941 2417 
Q 2944 2447 2944 2509 
Q 2944 2788 2717 2942 
Q 2491 3097 2081 3097 
Q 1800 3097 1504 3025 
Q 1209 2953 897 2809 
L 997 3341 
Q 1322 3463 1633 3523 
Q 1944 3584 2234 3584 
Q 2853 3584 3176 3315 
Q 3500 3047 3500 2534 
Q 3500 2431 3484 2292 
Q 3469 2153 3438 1997 
z
M 2816 1759 
L 2241 1759 
Q 1534 1759 1195 1570 
Q 856 1381 856 984 
Q 856 709 1029 553 
Q 1203 397 1509 397 
Q 1978 397 2328 733 
Q 2678 1069 2791 1631 
L 2816 1759 
z
" transform="scale(0.015625)"/>
       <path id="DejaVuSans-Oblique-6c" d="M 1172 4863 
L 1747 4863 
L 800 0 
L 225 0 
L 1172 4863 
z
" transform="scale(0.015625)"/>
       <path id="DejaVuSans-2f" d="M 1625 4666 
L 2156 4666 
L 531 -594 
L 0 -594 
L 1625 4666 
z
" transform="scale(0.015625)"/>
       <path id="DejaVuSans-Oblique-6d" d="M 5747 2113 
L 5338 0 
L 4763 0 
L 5166 2094 
Q 5191 2228 5203 2325 
Q 5216 2422 5216 2491 
Q 5216 2772 5059 2928 
Q 4903 3084 4622 3084 
Q 4203 3084 3875 2770 
Q 3547 2456 3450 1953 
L 3066 0 
L 2491 0 
L 2900 2094 
Q 2925 2209 2937 2307 
Q 2950 2406 2950 2484 
Q 2950 2769 2794 2926 
Q 2638 3084 2363 3084 
Q 1938 3084 1609 2770 
Q 1281 2456 1184 1953 
L 800 0 
L 225 0 
L 909 3500 
L 1484 3500 
L 1375 2956 
Q 1609 3263 1923 3423 
Q 2238 3584 2597 3584 
Q 2978 3584 3223 3384 
Q 3469 3184 3519 2828 
Q 3781 3197 4126 3390 
Q 4472 3584 4856 3584 
Q 5306 3584 5551 3325 
Q 5797 3066 5797 2591 
Q 5797 2488 5784 2364 
Q 5772 2241 5747 2113 
z
" transform="scale(0.015625)"/>
       <path id="DejaVuSans-Oblique-6f" d="M 1625 -91 
Q 1009 -91 651 289 
Q 294 669 294 1325 
Q 294 1706 417 2101 
Q 541 2497 738 2766 
Q 1047 3184 1428 3384 
Q 1809 3584 2291 3584 
Q 2888 3584 3255 3212 
Q 3622 2841 3622 2241 
Q 3622 1825 3500 1412 
Q 3378 1000 3181 728 
Q 2875 309 2494 109 
Q 2113 -91 1625 -91 
z
M 891 1344 
Q 891 869 1089 633 
Q 1288 397 1691 397 
Q 2269 397 2648 901 
Q 3028 1406 3028 2181 
Q 3028 2634 2825 2865 
Q 2622 3097 2228 3097 
Q 1903 3097 1650 2945 
Q 1397 2794 1197 2484 
Q 1050 2253 970 1956 
Q 891 1659 891 1344 
z
" transform="scale(0.015625)"/>
       <path id="DejaVuSans-5d" d="M 1947 4863 
L 1947 -844 
L 622 -844 
L 622 -397 
L 1369 -397 
L 1369 4416 
L 622 4416 
L 622 4863 
L 1947 4863 
z
" transform="scale(0.015625)"/>
      </defs>
      <use xlink:href="#DejaVuSans-394" transform="translate(0 0.015625)"/>
      <use xlink:href="#DejaVuSans-394" transform="translate(68.408203 0.015625)"/>
      <use xlink:href="#DejaVuSans-Oblique-47" transform="translate(136.816406 0.015625)"/>
      <use xlink:href="#DejaVuSans-Oblique-65" transform="translate(214.306641 -16.390625) scale(0.7)"/>
      <use xlink:href="#DejaVuSans-Oblique-78" transform="translate(257.373047 -16.390625) scale(0.7)"/>
      <use xlink:href="#DejaVuSans-Oblique-70" transform="translate(298.798828 -16.390625) scale(0.7)"/>
      <use xlink:href="#DejaVuSans-5b" transform="translate(345.966797 0.015625)"/>
      <use xlink:href="#DejaVuSans-Oblique-6b" transform="translate(384.980469 0.015625)"/>
      <use xlink:href="#DejaVuSans-Oblique-63" transform="translate(442.890625 0.015625)"/>
      <use xlink:href="#DejaVuSans-Oblique-61" transform="translate(497.871094 0.015625)"/>
      <use xlink:href="#DejaVuSans-Oblique-6c" transform="translate(559.150391 0.015625)"/>
      <use xlink:href="#DejaVuSans-2f" transform="translate(586.933594 0.015625)"/>
      <use xlink:href="#DejaVuSans-Oblique-6d" transform="translate(620.625 0.015625)"/>
      <use xlink:href="#DejaVuSans-Oblique-6f" transform="translate(718.037109 0.015625)"/>
      <use xlink:href="#DejaVuSans-Oblique-6c" transform="translate(779.21875 0.015625)"/>
      <use xlink:href="#DejaVuSans-5d" transform="translate(807.001953 0.015625)"/>
     </g>
    </g>
   </g>
   <g id="matplotlib.axis_2">
    <g id="ytick_1">
     <g id="line2d_7">
      <defs>
       <path id="mfa0324c58c" d="M 0 0 
L -3.5 0 
" style="stroke: #000000; stroke-width: 0.8"/>
      </defs>
      <g>
       <use xlink:href="#mfa0324c58c" x="43.642188" y="275.381309" style="stroke: #000000; stroke-width: 0.8"/>
      </g>
     </g>
     <g id="text_8">
      <!-- −4 -->
      <g transform="translate(21.9 279.180528) scale(0.1 -0.1)">
       <use xlink:href="#DejaVuSans-2212"/>
       <use xlink:href="#DejaVuSans-34" x="83.789062"/>
      </g>
     </g>
    </g>
    <g id="ytick_2">
     <g id="line2d_8">
      <g>
       <use xlink:href="#mfa0324c58c" x="43.642188" y="229.306495" style="stroke: #000000; stroke-width: 0.8"/>
      </g>
     </g>
     <g id="text_9">
      <!-- −2 -->
      <g transform="translate(21.9 233.105714) scale(0.1 -0.1)">
       <use xlink:href="#DejaVuSans-2212"/>
       <use xlink:href="#DejaVuSans-32" x="83.789062"/>
      </g>
     </g>
    </g>
    <g id="ytick_3">
     <g id="line2d_9">
      <g>
       <use xlink:href="#mfa0324c58c" x="43.642188" y="183.231681" style="stroke: #000000; stroke-width: 0.8"/>
      </g>
     </g>
     <g id="text_10">
      <!-- 0 -->
      <g transform="translate(30.279688 187.030899) scale(0.1 -0.1)">
       <use xlink:href="#DejaVuSans-30"/>
      </g>
     </g>
    </g>
    <g id="ytick_4">
     <g id="line2d_10">
      <g>
       <use xlink:href="#mfa0324c58c" x="43.642188" y="137.156867" style="stroke: #000000; stroke-width: 0.8"/>
      </g>
     </g>
     <g id="text_11">
      <!-- 2 -->
      <g transform="translate(30.279688 140.956085) scale(0.1 -0.1)">
       <use xlink:href="#DejaVuSans-32"/>
      </g>
     </g>
    </g>
    <g id="ytick_5">
     <g id="line2d_11">
      <g>
       <use xlink:href="#mfa0324c58c" x="43.642188" y="91.082053" style="stroke: #000000; stroke-width: 0.8"/>
      </g>
     </g>
     <g id="text_12">
      <!-- 4 -->
      <g transform="translate(30.279688 94.881271) scale(0.1 -0.1)">
       <use xlink:href="#DejaVuSans-34"/>
      </g>
     </g>
    </g>
    <g id="ytick_6">
     <g id="line2d_12">
      <g>
       <use xlink:href="#mfa0324c58c" x="43.642188" y="45.007238" style="stroke: #000000; stroke-width: 0.8"/>
      </g>
     </g>
     <g id="text_13">
      <!-- 6 -->
      <g transform="translate(30.279688 48.806457) scale(0.1 -0.1)">
       <use xlink:href="#DejaVuSans-36"/>
      </g>
     </g>
    </g>
    <g id="text_14">
     <!-- $\Delta\Delta G_{pred} [kcal/mol]$ -->
     <g transform="translate(14.8 199.276) rotate(-90) scale(0.1 -0.1)">
      <defs>
       <path id="DejaVuSans-Oblique-72" d="M 2853 2969 
Q 2766 3016 2653 3041 
Q 2541 3066 2413 3066 
Q 1953 3066 1609 2717 
Q 1266 2369 1153 1784 
L 800 0 
L 225 0 
L 909 3500 
L 1484 3500 
L 1375 2956 
Q 1603 3259 1920 3421 
Q 2238 3584 2597 3584 
Q 2691 3584 2781 3573 
Q 2872 3563 2963 3538 
L 2853 2969 
z
" transform="scale(0.015625)"/>
       <path id="DejaVuSans-Oblique-64" d="M 2675 525 
Q 2444 222 2128 65 
Q 1813 -91 1428 -91 
Q 903 -91 598 267 
Q 294 625 294 1247 
Q 294 1766 478 2236 
Q 663 2706 1013 3078 
Q 1244 3325 1534 3454 
Q 1825 3584 2144 3584 
Q 2481 3584 2739 3421 
Q 2997 3259 3138 2956 
L 3513 4863 
L 4091 4863 
L 3144 0 
L 2566 0 
L 2675 525 
z
M 891 1350 
Q 891 897 1095 644 
Q 1300 391 1663 391 
Q 1931 391 2161 520 
Q 2391 650 2566 903 
Q 2750 1166 2856 1509 
Q 2963 1853 2963 2188 
Q 2963 2622 2758 2865 
Q 2553 3109 2194 3109 
Q 1922 3109 1687 2981 
Q 1453 2853 1288 2613 
Q 1106 2353 998 2009 
Q 891 1666 891 1350 
z
" transform="scale(0.015625)"/>
      </defs>
      <use xlink:href="#DejaVuSans-394" transform="translate(0 0.015625)"/>
      <use xlink:href="#DejaVuSans-394" transform="translate(68.408203 0.015625)"/>
      <use xlink:href="#DejaVuSans-Oblique-47" transform="translate(136.816406 0.015625)"/>
      <use xlink:href="#DejaVuSans-Oblique-70" transform="translate(214.306641 -16.390625) scale(0.7)"/>
      <use xlink:href="#DejaVuSans-Oblique-72" transform="translate(258.740234 -16.390625) scale(0.7)"/>
      <use xlink:href="#DejaVuSans-Oblique-65" transform="translate(287.519531 -16.390625) scale(0.7)"/>
      <use xlink:href="#DejaVuSans-Oblique-64" transform="translate(330.585938 -16.390625) scale(0.7)"/>
      <use xlink:href="#DejaVuSans-5b" transform="translate(377.753906 0.015625)"/>
      <use xlink:href="#DejaVuSans-Oblique-6b" transform="translate(416.767578 0.015625)"/>
      <use xlink:href="#DejaVuSans-Oblique-63" transform="translate(474.677734 0.015625)"/>
      <use xlink:href="#DejaVuSans-Oblique-61" transform="translate(529.658203 0.015625)"/>
      <use xlink:href="#DejaVuSans-Oblique-6c" transform="translate(590.9375 0.015625)"/>
      <use xlink:href="#DejaVuSans-2f" transform="translate(618.720703 0.015625)"/>
      <use xlink:href="#DejaVuSans-Oblique-6d" transform="translate(652.412109 0.015625)"/>
      <use xlink:href="#DejaVuSans-Oblique-6f" transform="translate(749.824219 0.015625)"/>
      <use xlink:href="#DejaVuSans-Oblique-6c" transform="translate(811.005859 0.015625)"/>
      <use xlink:href="#DejaVuSans-5d" transform="translate(838.789062 0.015625)"/>
     </g>
    </g>
   </g>
   <g id="PolyCollection_2">
    <defs>
     <path id="m41e0db778a" d="M 43.642188 -61.615532 
L 43.642188 -15.540718 
L 309.754187 -281.652718 
L 309.754187 -327.727532 
L 309.754187 -327.727532 
L 43.642188 -61.615532 
z
" style="stroke: #a9a9a9; stroke-opacity: 0.5"/>
    </defs>
    <g clip-path="url(#pefbaa149fc)">
     <use xlink:href="#m41e0db778a" x="0" y="327.010125" style="fill: #a9a9a9; fill-opacity: 0.5; stroke: #a9a9a9; stroke-opacity: 0.5"/>
    </g>
   </g>
   <g id="patch_3">
    <path d="M 43.642188 288.432 
L 43.642188 22.32 
" style="fill: none; stroke: #000000; stroke-width: 0.8; stroke-linejoin: miter; stroke-linecap: square"/>
   </g>
   <g id="patch_4">
    <path d="M 309.754187 288.432 
L 309.754187 22.32 
" style="fill: none; stroke: #000000; stroke-width: 0.8; stroke-linejoin: miter; stroke-linecap: square"/>
   </g>
   <g id="patch_5">
    <path d="M 43.642188 288.432 
L 309.754187 288.432 
" style="fill: none; stroke: #000000; stroke-width: 0.8; stroke-linejoin: miter; stroke-linecap: square"/>
   </g>
   <g id="patch_6">
    <path d="M 43.642188 22.32 
L 309.754187 22.32 
" style="fill: none; stroke: #000000; stroke-width: 0.8; stroke-linejoin: miter; stroke-linecap: square"/>
   </g>
   <g id="line2d_13">
    <path d="M 43.642188 288.432 
L 309.754187 22.32 
" clip-path="url(#pefbaa149fc)" style="fill: none; stroke: #000000; stroke-width: 1.5; stroke-linecap: square"/>
   </g>
   <g id="text_15">
    <!-- $\tau = 0.32_{-0.05}^{0.62}$ (Kendall's $\tau$) -->
    <g transform="translate(320.398667 191.8128) scale(0.12 -0.12)">
     <defs>
      <path id="DejaVuSans-Oblique-3c4" d="M 2103 638 
Q 2188 488 2525 488 
L 2800 488 
L 2706 0 
L 2363 0 
Q 1800 0 1600 300 
Q 1403 606 1534 1269 
L 1856 2925 
L 541 2925 
L 653 3500 
L 3881 3500 
L 3769 2925 
L 2444 2925 
L 2113 1234 
Q 2025 781 2103 638 
z
" transform="scale(0.015625)"/>
      <path id="DejaVuSans-3d" d="M 678 2906 
L 4684 2906 
L 4684 2381 
L 678 2381 
L 678 2906 
z
M 678 1631 
L 4684 1631 
L 4684 1100 
L 678 1100 
L 678 1631 
z
" transform="scale(0.015625)"/>
      <path id="DejaVuSans-2e" d="M 684 794 
L 1344 794 
L 1344 0 
L 684 0 
L 684 794 
z
" transform="scale(0.015625)"/>
      <path id="DejaVuSans-33" d="M 2597 2516 
Q 3050 2419 3304 2112 
Q 3559 1806 3559 1356 
Q 3559 666 3084 287 
Q 2609 -91 1734 -91 
Q 1441 -91 1130 -33 
Q 819 25 488 141 
L 488 750 
Q 750 597 1062 519 
Q 1375 441 1716 441 
Q 2309 441 2620 675 
Q 2931 909 2931 1356 
Q 2931 1769 2642 2001 
Q 2353 2234 1838 2234 
L 1294 2234 
L 1294 2753 
L 1863 2753 
Q 2328 2753 2575 2939 
Q 2822 3125 2822 3475 
Q 2822 3834 2567 4026 
Q 2313 4219 1838 4219 
Q 1578 4219 1281 4162 
Q 984 4106 628 3988 
L 628 4550 
Q 988 4650 1302 4700 
Q 1616 4750 1894 4750 
Q 2613 4750 3031 4423 
Q 3450 4097 3450 3541 
Q 3450 3153 3228 2886 
Q 3006 2619 2597 2516 
z
" transform="scale(0.015625)"/>
      <path id="DejaVuSans-35" d="M 691 4666 
L 3169 4666 
L 3169 4134 
L 1269 4134 
L 1269 2991 
Q 1406 3038 1543 3061 
Q 1681 3084 1819 3084 
Q 2600 3084 3056 2656 
Q 3513 2228 3513 1497 
Q 3513 744 3044 326 
Q 2575 -91 1722 -91 
Q 1428 -91 1123 -41 
Q 819 9 494 109 
L 494 744 
Q 775 591 1075 516 
Q 1375 441 1709 441 
Q 2250 441 2565 725 
Q 2881 1009 2881 1497 
Q 2881 1984 2565 2268 
Q 2250 2553 1709 2553 
Q 1456 2553 1204 2497 
Q 953 2441 691 2322 
L 691 4666 
z
" transform="scale(0.015625)"/>
      <path id="DejaVuSans-20" transform="scale(0.015625)"/>
      <path id="DejaVuSans-28" d="M 1984 4856 
Q 1566 4138 1362 3434 
Q 1159 2731 1159 2009 
Q 1159 1288 1364 580 
Q 1569 -128 1984 -844 
L 1484 -844 
Q 1016 -109 783 600 
Q 550 1309 550 2009 
Q 550 2706 781 3412 
Q 1013 4119 1484 4856 
L 1984 4856 
z
" transform="scale(0.015625)"/>
      <path id="DejaVuSans-4b" d="M 628 4666 
L 1259 4666 
L 1259 2694 
L 3353 4666 
L 4166 4666 
L 1850 2491 
L 4331 0 
L 3500 0 
L 1259 2247 
L 1259 0 
L 628 0 
L 628 4666 
z
" transform="scale(0.015625)"/>
      <path id="DejaVuSans-65" d="M 3597 1894 
L 3597 1613 
L 953 1613 
Q 991 1019 1311 708 
Q 1631 397 2203 397 
Q 2534 397 2845 478 
Q 3156 559 3463 722 
L 3463 178 
Q 3153 47 2828 -22 
Q 2503 -91 2169 -91 
Q 1331 -91 842 396 
Q 353 884 353 1716 
Q 353 2575 817 3079 
Q 1281 3584 2069 3584 
Q 2775 3584 3186 3129 
Q 3597 2675 3597 1894 
z
M 3022 2063 
Q 3016 2534 2758 2815 
Q 2500 3097 2075 3097 
Q 1594 3097 1305 2825 
Q 1016 2553 972 2059 
L 3022 2063 
z
" transform="scale(0.015625)"/>
      <path id="DejaVuSans-6e" d="M 3513 2113 
L 3513 0 
L 2938 0 
L 2938 2094 
Q 2938 2591 2744 2837 
Q 2550 3084 2163 3084 
Q 1697 3084 1428 2787 
Q 1159 2491 1159 1978 
L 1159 0 
L 581 0 
L 581 3500 
L 1159 3500 
L 1159 2956 
Q 1366 3272 1645 3428 
Q 1925 3584 2291 3584 
Q 2894 3584 3203 3211 
Q 3513 2838 3513 2113 
z
" transform="scale(0.015625)"/>
      <path id="DejaVuSans-64" d="M 2906 2969 
L 2906 4863 
L 3481 4863 
L 3481 0 
L 2906 0 
L 2906 525 
Q 2725 213 2448 61 
Q 2172 -91 1784 -91 
Q 1150 -91 751 415 
Q 353 922 353 1747 
Q 353 2572 751 3078 
Q 1150 3584 1784 3584 
Q 2172 3584 2448 3432 
Q 2725 3281 2906 2969 
z
M 947 1747 
Q 947 1113 1208 752 
Q 1469 391 1925 391 
Q 2381 391 2643 752 
Q 2906 1113 2906 1747 
Q 2906 2381 2643 2742 
Q 2381 3103 1925 3103 
Q 1469 3103 1208 2742 
Q 947 2381 947 1747 
z
" transform="scale(0.015625)"/>
      <path id="DejaVuSans-61" d="M 2194 1759 
Q 1497 1759 1228 1600 
Q 959 1441 959 1056 
Q 959 750 1161 570 
Q 1363 391 1709 391 
Q 2188 391 2477 730 
Q 2766 1069 2766 1631 
L 2766 1759 
L 2194 1759 
z
M 3341 1997 
L 3341 0 
L 2766 0 
L 2766 531 
Q 2569 213 2275 61 
Q 1981 -91 1556 -91 
Q 1019 -91 701 211 
Q 384 513 384 1019 
Q 384 1609 779 1909 
Q 1175 2209 1959 2209 
L 2766 2209 
L 2766 2266 
Q 2766 2663 2505 2880 
Q 2244 3097 1772 3097 
Q 1472 3097 1187 3025 
Q 903 2953 641 2809 
L 641 3341 
Q 956 3463 1253 3523 
Q 1550 3584 1831 3584 
Q 2591 3584 2966 3190 
Q 3341 2797 3341 1997 
z
" transform="scale(0.015625)"/>
      <path id="DejaVuSans-6c" d="M 603 4863 
L 1178 4863 
L 1178 0 
L 603 0 
L 603 4863 
z
" transform="scale(0.015625)"/>
      <path id="DejaVuSans-27" d="M 1147 4666 
L 1147 2931 
L 616 2931 
L 616 4666 
L 1147 4666 
z
" transform="scale(0.015625)"/>
      <path id="DejaVuSans-73" d="M 2834 3397 
L 2834 2853 
Q 2591 2978 2328 3040 
Q 2066 3103 1784 3103 
Q 1356 3103 1142 2972 
Q 928 2841 928 2578 
Q 928 2378 1081 2264 
Q 1234 2150 1697 2047 
L 1894 2003 
Q 2506 1872 2764 1633 
Q 3022 1394 3022 966 
Q 3022 478 2636 193 
Q 2250 -91 1575 -91 
Q 1294 -91 989 -36 
Q 684 19 347 128 
L 347 722 
Q 666 556 975 473 
Q 1284 391 1588 391 
Q 1994 391 2212 530 
Q 2431 669 2431 922 
Q 2431 1156 2273 1281 
Q 2116 1406 1581 1522 
L 1381 1569 
Q 847 1681 609 1914 
Q 372 2147 372 2553 
Q 372 3047 722 3315 
Q 1072 3584 1716 3584 
Q 2034 3584 2315 3537 
Q 2597 3491 2834 3397 
z
" transform="scale(0.015625)"/>
      <path id="DejaVuSans-29" d="M 513 4856 
L 1013 4856 
Q 1481 4119 1714 3412 
Q 1947 2706 1947 2009 
Q 1947 1309 1714 600 
Q 1481 -109 1013 -844 
L 513 -844 
Q 928 -128 1133 580 
Q 1338 1288 1338 2009 
Q 1338 2731 1133 3434 
Q 928 4138 513 4856 
z
" transform="scale(0.015625)"/>
     </defs>
     <use xlink:href="#DejaVuSans-Oblique-3c4" transform="translate(0 0.765625)"/>
     <use xlink:href="#DejaVuSans-3d" transform="translate(79.6875 0.765625)"/>
     <use xlink:href="#DejaVuSans-30" transform="translate(182.958984 0.765625)"/>
     <use xlink:href="#DejaVuSans-2e" transform="translate(246.582031 0.765625)"/>
     <use xlink:href="#DejaVuSans-33" transform="translate(278.369141 0.765625)"/>
     <use xlink:href="#DejaVuSans-32" transform="translate(341.992188 0.765625)"/>
     <use xlink:href="#DejaVuSans-30" transform="translate(406.572266 39.046875) scale(0.7)"/>
     <use xlink:href="#DejaVuSans-2e" transform="translate(451.108398 39.046875) scale(0.7)"/>
     <use xlink:href="#DejaVuSans-36" transform="translate(473.359375 39.046875) scale(0.7)"/>
     <use xlink:href="#DejaVuSans-32" transform="translate(517.895508 39.046875) scale(0.7)"/>
     <use xlink:href="#DejaVuSans-2212" transform="translate(406.572266 -26.578125) scale(0.7)"/>
     <use xlink:href="#DejaVuSans-30" transform="translate(465.224609 -26.578125) scale(0.7)"/>
     <use xlink:href="#DejaVuSans-2e" transform="translate(509.760742 -26.578125) scale(0.7)"/>
     <use xlink:href="#DejaVuSans-30" transform="translate(532.011719 -26.578125) scale(0.7)"/>
     <use xlink:href="#DejaVuSans-35" transform="translate(576.547852 -26.578125) scale(0.7)"/>
     <use xlink:href="#DejaVuSans-20" transform="translate(623.818359 0.765625)"/>
     <use xlink:href="#DejaVuSans-28" transform="translate(655.605469 0.765625)"/>
     <use xlink:href="#DejaVuSans-4b" transform="translate(694.619141 0.765625)"/>
     <use xlink:href="#DejaVuSans-65" transform="translate(760.195312 0.765625)"/>
     <use xlink:href="#DejaVuSans-6e" transform="translate(821.71875 0.765625)"/>
     <use xlink:href="#DejaVuSans-64" transform="translate(885.097656 0.765625)"/>
     <use xlink:href="#DejaVuSans-61" transform="translate(948.574219 0.765625)"/>
     <use xlink:href="#DejaVuSans-6c" transform="translate(1009.853516 0.765625)"/>
     <use xlink:href="#DejaVuSans-6c" transform="translate(1037.636719 0.765625)"/>
     <use xlink:href="#DejaVuSans-27" transform="translate(1065.419922 0.765625)"/>
     <use xlink:href="#DejaVuSans-73" transform="translate(1092.910156 0.765625)"/>
     <use xlink:href="#DejaVuSans-20" transform="translate(1145.009766 0.765625)"/>
     <use xlink:href="#DejaVuSans-Oblique-3c4" transform="translate(1176.796875 0.765625)"/>
     <use xlink:href="#DejaVuSans-29" transform="translate(1237.001953 0.765625)"/>
    </g>
   </g>
   <g id="text_16">
    <!-- RMSE = $1.21_{0.88}^{1.56}  \frac{kcal}{mol}$ -->
    <g transform="translate(320.398667 212.87232) scale(0.12 -0.12)">
     <defs>
      <path id="DejaVuSans-52" d="M 2841 2188 
Q 3044 2119 3236 1894 
Q 3428 1669 3622 1275 
L 4263 0 
L 3584 0 
L 2988 1197 
Q 2756 1666 2539 1819 
Q 2322 1972 1947 1972 
L 1259 1972 
L 1259 0 
L 628 0 
L 628 4666 
L 2053 4666 
Q 2853 4666 3247 4331 
Q 3641 3997 3641 3322 
Q 3641 2881 3436 2590 
Q 3231 2300 2841 2188 
z
M 1259 4147 
L 1259 2491 
L 2053 2491 
Q 2509 2491 2742 2702 
Q 2975 2913 2975 3322 
Q 2975 3731 2742 3939 
Q 2509 4147 2053 4147 
L 1259 4147 
z
" transform="scale(0.015625)"/>
      <path id="DejaVuSans-4d" d="M 628 4666 
L 1569 4666 
L 2759 1491 
L 3956 4666 
L 4897 4666 
L 4897 0 
L 4281 0 
L 4281 4097 
L 3078 897 
L 2444 897 
L 1241 4097 
L 1241 0 
L 628 0 
L 628 4666 
z
" transform="scale(0.015625)"/>
      <path id="DejaVuSans-53" d="M 3425 4513 
L 3425 3897 
Q 3066 4069 2747 4153 
Q 2428 4238 2131 4238 
Q 1616 4238 1336 4038 
Q 1056 3838 1056 3469 
Q 1056 3159 1242 3001 
Q 1428 2844 1947 2747 
L 2328 2669 
Q 3034 2534 3370 2195 
Q 3706 1856 3706 1288 
Q 3706 609 3251 259 
Q 2797 -91 1919 -91 
Q 1588 -91 1214 -16 
Q 841 59 441 206 
L 441 856 
Q 825 641 1194 531 
Q 1563 422 1919 422 
Q 2459 422 2753 634 
Q 3047 847 3047 1241 
Q 3047 1584 2836 1778 
Q 2625 1972 2144 2069 
L 1759 2144 
Q 1053 2284 737 2584 
Q 422 2884 422 3419 
Q 422 4038 858 4394 
Q 1294 4750 2059 4750 
Q 2388 4750 2728 4690 
Q 3069 4631 3425 4513 
z
" transform="scale(0.015625)"/>
      <path id="DejaVuSans-45" d="M 628 4666 
L 3578 4666 
L 3578 4134 
L 1259 4134 
L 1259 2753 
L 3481 2753 
L 3481 2222 
L 1259 2222 
L 1259 531 
L 3634 531 
L 3634 0 
L 628 0 
L 628 4666 
z
" transform="scale(0.015625)"/>
      <path id="DejaVuSans-31" d="M 794 531 
L 1825 531 
L 1825 4091 
L 703 3866 
L 703 4441 
L 1819 4666 
L 2450 4666 
L 2450 531 
L 3481 531 
L 3481 0 
L 794 0 
L 794 531 
z
" transform="scale(0.015625)"/>
      <path id="DejaVuSans-38" d="M 2034 2216 
Q 1584 2216 1326 1975 
Q 1069 1734 1069 1313 
Q 1069 891 1326 650 
Q 1584 409 2034 409 
Q 2484 409 2743 651 
Q 3003 894 3003 1313 
Q 3003 1734 2745 1975 
Q 2488 2216 2034 2216 
z
M 1403 2484 
Q 997 2584 770 2862 
Q 544 3141 544 3541 
Q 544 4100 942 4425 
Q 1341 4750 2034 4750 
Q 2731 4750 3128 4425 
Q 3525 4100 3525 3541 
Q 3525 3141 3298 2862 
Q 3072 2584 2669 2484 
Q 3125 2378 3379 2068 
Q 3634 1759 3634 1313 
Q 3634 634 3220 271 
Q 2806 -91 2034 -91 
Q 1263 -91 848 271 
Q 434 634 434 1313 
Q 434 1759 690 2068 
Q 947 2378 1403 2484 
z
M 1172 3481 
Q 1172 3119 1398 2916 
Q 1625 2713 2034 2713 
Q 2441 2713 2670 2916 
Q 2900 3119 2900 3481 
Q 2900 3844 2670 4047 
Q 2441 4250 2034 4250 
Q 1625 4250 1398 4047 
Q 1172 3844 1172 3481 
z
" transform="scale(0.015625)"/>
     </defs>
     <use xlink:href="#DejaVuSans-52" transform="translate(0 0.01875)"/>
     <use xlink:href="#DejaVuSans-4d" transform="translate(69.482422 0.01875)"/>
     <use xlink:href="#DejaVuSans-53" transform="translate(155.761719 0.01875)"/>
     <use xlink:href="#DejaVuSans-45" transform="translate(219.238281 0.01875)"/>
     <use xlink:href="#DejaVuSans-20" transform="translate(282.421875 0.01875)"/>
     <use xlink:href="#DejaVuSans-3d" transform="translate(314.208984 0.01875)"/>
     <use xlink:href="#DejaVuSans-20" transform="translate(397.998047 0.01875)"/>
     <use xlink:href="#DejaVuSans-31" transform="translate(429.785156 0.01875)"/>
     <use xlink:href="#DejaVuSans-2e" transform="translate(493.408203 0.01875)"/>
     <use xlink:href="#DejaVuSans-32" transform="translate(519.695312 0.01875)"/>
     <use xlink:href="#DejaVuSans-31" transform="translate(583.318359 0.01875)"/>
     <use xlink:href="#DejaVuSans-31" transform="translate(647.898438 38.3) scale(0.7)"/>
     <use xlink:href="#DejaVuSans-2e" transform="translate(692.43457 38.3) scale(0.7)"/>
     <use xlink:href="#DejaVuSans-35" transform="translate(714.685547 38.3) scale(0.7)"/>
     <use xlink:href="#DejaVuSans-36" transform="translate(759.22168 38.3) scale(0.7)"/>
     <use xlink:href="#DejaVuSans-30" transform="translate(647.898438 -27.325) scale(0.7)"/>
     <use xlink:href="#DejaVuSans-2e" transform="translate(692.43457 -27.325) scale(0.7)"/>
     <use xlink:href="#DejaVuSans-38" transform="translate(712.848047 -27.325) scale(0.7)"/>
     <use xlink:href="#DejaVuSans-38" transform="translate(757.38418 -27.325) scale(0.7)"/>
     <use xlink:href="#DejaVuSans-Oblique-6b" transform="translate(806.492188 44.810938) scale(0.7)"/>
     <use xlink:href="#DejaVuSans-Oblique-63" transform="translate(847.029297 44.810938) scale(0.7)"/>
     <use xlink:href="#DejaVuSans-Oblique-61" transform="translate(885.515625 44.810938) scale(0.7)"/>
     <use xlink:href="#DejaVuSans-Oblique-6c" transform="translate(928.411133 44.810938) scale(0.7)"/>
     <use xlink:href="#DejaVuSans-Oblique-6d" transform="translate(811.492188 -40.623437) scale(0.7)"/>
     <use xlink:href="#DejaVuSans-Oblique-6f" transform="translate(879.680664 -40.623437) scale(0.7)"/>
     <use xlink:href="#DejaVuSans-Oblique-6c" transform="translate(922.507812 -40.623437) scale(0.7)"/>
     <path d="M 806.492188 18.815625 
L 806.492188 25.065625 
L 947.859375 25.065625 
L 947.859375 18.815625 
L 806.492188 18.815625 
z
"/>
    </g>
   </g>
   <g id="text_17">
    <!-- MUE = $0.97_{0.67}^{1.3}  \frac{kcal}{mol}$ -->
    <g transform="translate(320.398667 235.49184) scale(0.12 -0.12)">
     <defs>
      <path id="DejaVuSans-55" d="M 556 4666 
L 1191 4666 
L 1191 1831 
Q 1191 1081 1462 751 
Q 1734 422 2344 422 
Q 2950 422 3222 751 
Q 3494 1081 3494 1831 
L 3494 4666 
L 4128 4666 
L 4128 1753 
Q 4128 841 3676 375 
Q 3225 -91 2344 -91 
Q 1459 -91 1007 375 
Q 556 841 556 1753 
L 556 4666 
z
" transform="scale(0.015625)"/>
      <path id="DejaVuSans-39" d="M 703 97 
L 703 672 
Q 941 559 1184 500 
Q 1428 441 1663 441 
Q 2288 441 2617 861 
Q 2947 1281 2994 2138 
Q 2813 1869 2534 1725 
Q 2256 1581 1919 1581 
Q 1219 1581 811 2004 
Q 403 2428 403 3163 
Q 403 3881 828 4315 
Q 1253 4750 1959 4750 
Q 2769 4750 3195 4129 
Q 3622 3509 3622 2328 
Q 3622 1225 3098 567 
Q 2575 -91 1691 -91 
Q 1453 -91 1209 -44 
Q 966 3 703 97 
z
M 1959 2075 
Q 2384 2075 2632 2365 
Q 2881 2656 2881 3163 
Q 2881 3666 2632 3958 
Q 2384 4250 1959 4250 
Q 1534 4250 1286 3958 
Q 1038 3666 1038 3163 
Q 1038 2656 1286 2365 
Q 1534 2075 1959 2075 
z
" transform="scale(0.015625)"/>
      <path id="DejaVuSans-37" d="M 525 4666 
L 3525 4666 
L 3525 4397 
L 1831 0 
L 1172 0 
L 2766 4134 
L 525 4134 
L 525 4666 
z
" transform="scale(0.015625)"/>
     </defs>
     <use xlink:href="#DejaVuSans-4d" transform="translate(0 0.01875)"/>
     <use xlink:href="#DejaVuSans-55" transform="translate(86.279297 0.01875)"/>
     <use xlink:href="#DejaVuSans-45" transform="translate(159.472656 0.01875)"/>
     <use xlink:href="#DejaVuSans-20" transform="translate(222.65625 0.01875)"/>
     <use xlink:href="#DejaVuSans-3d" transform="translate(254.443359 0.01875)"/>
     <use xlink:href="#DejaVuSans-20" transform="translate(338.232422 0.01875)"/>
     <use xlink:href="#DejaVuSans-30" transform="translate(370.019531 0.01875)"/>
     <use xlink:href="#DejaVuSans-2e" transform="translate(433.642578 0.01875)"/>
     <use xlink:href="#DejaVuSans-39" transform="translate(465.429688 0.01875)"/>
     <use xlink:href="#DejaVuSans-37" transform="translate(529.052734 0.01875)"/>
     <use xlink:href="#DejaVuSans-31" transform="translate(593.632812 38.3) scale(0.7)"/>
     <use xlink:href="#DejaVuSans-2e" transform="translate(638.168945 38.3) scale(0.7)"/>
     <use xlink:href="#DejaVuSans-33" transform="translate(660.419922 38.3) scale(0.7)"/>
     <use xlink:href="#DejaVuSans-30" transform="translate(593.632812 -27.325) scale(0.7)"/>
     <use xlink:href="#DejaVuSans-2e" transform="translate(638.168945 -27.325) scale(0.7)"/>
     <use xlink:href="#DejaVuSans-36" transform="translate(660.419922 -27.325) scale(0.7)"/>
     <use xlink:href="#DejaVuSans-37" transform="translate(704.956055 -27.325) scale(0.7)"/>
     <use xlink:href="#DejaVuSans-Oblique-6b" transform="translate(752.226562 44.810938) scale(0.7)"/>
     <use xlink:href="#DejaVuSans-Oblique-63" transform="translate(792.763672 44.810938) scale(0.7)"/>
     <use xlink:href="#DejaVuSans-Oblique-61" transform="translate(831.25 44.810938) scale(0.7)"/>
     <use xlink:href="#DejaVuSans-Oblique-6c" transform="translate(874.145508 44.810938) scale(0.7)"/>
     <use xlink:href="#DejaVuSans-Oblique-6d" transform="translate(757.226562 -40.623437) scale(0.7)"/>
     <use xlink:href="#DejaVuSans-Oblique-6f" transform="translate(825.415039 -40.623437) scale(0.7)"/>
     <use xlink:href="#DejaVuSans-Oblique-6c" transform="translate(868.242188 -40.623437) scale(0.7)"/>
     <path d="M 752.226562 18.815625 
L 752.226562 25.065625 
L 893.59375 25.065625 
L 893.59375 18.815625 
L 752.226562 18.815625 
z
"/>
    </g>
   </g>
   <g id="text_18">
    <!-- tyk2 - $\Delta\Delta Gbar$ plot ($N=22$) -->
    <g transform="translate(95.218187 16.32) scale(0.12 -0.12)">
     <defs>
      <path id="DejaVuSans-74" d="M 1172 4494 
L 1172 3500 
L 2356 3500 
L 2356 3053 
L 1172 3053 
L 1172 1153 
Q 1172 725 1289 603 
Q 1406 481 1766 481 
L 2356 481 
L 2356 0 
L 1766 0 
Q 1100 0 847 248 
Q 594 497 594 1153 
L 594 3053 
L 172 3053 
L 172 3500 
L 594 3500 
L 594 4494 
L 1172 4494 
z
" transform="scale(0.015625)"/>
      <path id="DejaVuSans-79" d="M 2059 -325 
Q 1816 -950 1584 -1140 
Q 1353 -1331 966 -1331 
L 506 -1331 
L 506 -850 
L 844 -850 
Q 1081 -850 1212 -737 
Q 1344 -625 1503 -206 
L 1606 56 
L 191 3500 
L 800 3500 
L 1894 763 
L 2988 3500 
L 3597 3500 
L 2059 -325 
z
" transform="scale(0.015625)"/>
      <path id="DejaVuSans-6b" d="M 581 4863 
L 1159 4863 
L 1159 1991 
L 2875 3500 
L 3609 3500 
L 1753 1863 
L 3688 0 
L 2938 0 
L 1159 1709 
L 1159 0 
L 581 0 
L 581 4863 
z
" transform="scale(0.015625)"/>
      <path id="DejaVuSans-2d" d="M 313 2009 
L 1997 2009 
L 1997 1497 
L 313 1497 
L 313 2009 
z
" transform="scale(0.015625)"/>
      <path id="DejaVuSans-Oblique-62" d="M 3169 2138 
Q 3169 2591 2961 2847 
Q 2753 3103 2388 3103 
Q 2122 3103 1889 2973 
Q 1656 2844 1484 2597 
Q 1303 2338 1198 1995 
Q 1094 1653 1094 1313 
Q 1094 881 1298 636 
Q 1503 391 1863 391 
Q 2134 391 2365 517 
Q 2597 644 2772 891 
Q 2950 1147 3059 1487 
Q 3169 1828 3169 2138 
z
M 1381 2969 
Q 1594 3256 1914 3420 
Q 2234 3584 2584 3584 
Q 3122 3584 3439 3221 
Q 3756 2859 3756 2241 
Q 3756 1734 3570 1259 
Q 3384 784 3041 416 
Q 2816 172 2522 40 
Q 2228 -91 1906 -91 
Q 1566 -91 1316 65 
Q 1066 222 909 531 
L 806 0 
L 231 0 
L 1178 4863 
L 1753 4863 
L 1381 2969 
z
" transform="scale(0.015625)"/>
      <path id="DejaVuSans-70" d="M 1159 525 
L 1159 -1331 
L 581 -1331 
L 581 3500 
L 1159 3500 
L 1159 2969 
Q 1341 3281 1617 3432 
Q 1894 3584 2278 3584 
Q 2916 3584 3314 3078 
Q 3713 2572 3713 1747 
Q 3713 922 3314 415 
Q 2916 -91 2278 -91 
Q 1894 -91 1617 61 
Q 1341 213 1159 525 
z
M 3116 1747 
Q 3116 2381 2855 2742 
Q 2594 3103 2138 3103 
Q 1681 3103 1420 2742 
Q 1159 2381 1159 1747 
Q 1159 1113 1420 752 
Q 1681 391 2138 391 
Q 2594 391 2855 752 
Q 3116 1113 3116 1747 
z
" transform="scale(0.015625)"/>
      <path id="DejaVuSans-6f" d="M 1959 3097 
Q 1497 3097 1228 2736 
Q 959 2375 959 1747 
Q 959 1119 1226 758 
Q 1494 397 1959 397 
Q 2419 397 2687 759 
Q 2956 1122 2956 1747 
Q 2956 2369 2687 2733 
Q 2419 3097 1959 3097 
z
M 1959 3584 
Q 2709 3584 3137 3096 
Q 3566 2609 3566 1747 
Q 3566 888 3137 398 
Q 2709 -91 1959 -91 
Q 1206 -91 779 398 
Q 353 888 353 1747 
Q 353 2609 779 3096 
Q 1206 3584 1959 3584 
z
" transform="scale(0.015625)"/>
      <path id="DejaVuSans-Oblique-4e" d="M 1081 4666 
L 1931 4666 
L 3219 666 
L 4000 4666 
L 4616 4666 
L 3706 0 
L 2853 0 
L 1569 4025 
L 788 0 
L 172 0 
L 1081 4666 
z
" transform="scale(0.015625)"/>
     </defs>
     <use xlink:href="#DejaVuSans-74" transform="translate(0 0.015625)"/>
     <use xlink:href="#DejaVuSans-79" transform="translate(39.208984 0.015625)"/>
     <use xlink:href="#DejaVuSans-6b" transform="translate(98.388672 0.015625)"/>
     <use xlink:href="#DejaVuSans-32" transform="translate(156.298828 0.015625)"/>
     <use xlink:href="#DejaVuSans-20" transform="translate(219.921875 0.015625)"/>
     <use xlink:href="#DejaVuSans-2d" transform="translate(251.708984 0.015625)"/>
     <use xlink:href="#DejaVuSans-20" transform="translate(287.792969 0.015625)"/>
     <use xlink:href="#DejaVuSans-394" transform="translate(319.580078 0.015625)"/>
     <use xlink:href="#DejaVuSans-394" transform="translate(387.988281 0.015625)"/>
     <use xlink:href="#DejaVuSans-Oblique-47" transform="translate(456.396484 0.015625)"/>
     <use xlink:href="#DejaVuSans-Oblique-62" transform="translate(533.886719 0.015625)"/>
     <use xlink:href="#DejaVuSans-Oblique-61" transform="translate(597.363281 0.015625)"/>
     <use xlink:href="#DejaVuSans-Oblique-72" transform="translate(658.642578 0.015625)"/>
     <use xlink:href="#DejaVuSans-20" transform="translate(699.755859 0.015625)"/>
     <use xlink:href="#DejaVuSans-70" transform="translate(731.542969 0.015625)"/>
     <use xlink:href="#DejaVuSans-6c" transform="translate(795.019531 0.015625)"/>
     <use xlink:href="#DejaVuSans-6f" transform="translate(822.802734 0.015625)"/>
     <use xlink:href="#DejaVuSans-74" transform="translate(883.984375 0.015625)"/>
     <use xlink:href="#DejaVuSans-20" transform="translate(923.193359 0.015625)"/>
     <use xlink:href="#DejaVuSans-28" transform="translate(954.980469 0.015625)"/>
     <use xlink:href="#DejaVuSans-Oblique-4e" transform="translate(993.994141 0.015625)"/>
     <use xlink:href="#DejaVuSans-3d" transform="translate(1088.28125 0.015625)"/>
     <use xlink:href="#DejaVuSans-32" transform="translate(1191.552734 0.015625)"/>
     <use xlink:href="#DejaVuSans-32" transform="translate(1255.175781 0.015625)"/>
     <use xlink:href="#DejaVuSans-29" transform="translate(1318.798828 0.015625)"/>
    </g>
   </g>
   <g id="LineCollection_1">
    <path d="M 107.605548 165.178412 
L 107.605548 151.749917 
" clip-path="url(#pefbaa149fc)" style="fill: none; stroke: #000000; stroke-width: 2"/>
    <path d="M 129.491085 250.545242 
L 129.491085 241.5411 
" clip-path="url(#pefbaa149fc)" style="fill: none; stroke: #000000; stroke-width: 2"/>
    <path d="M 149.764003 231.233628 
L 149.764003 219.09511 
" clip-path="url(#pefbaa149fc)" style="fill: none; stroke: #000000; stroke-width: 2"/>
    <path d="M 197.68181 105.438957 
L 197.68181 82.954463 
" clip-path="url(#pefbaa149fc)" style="fill: none; stroke: #000000; stroke-width: 2"/>
    <path d="M 131.564451 246.039778 
L 131.564451 235.24202 
" clip-path="url(#pefbaa149fc)" style="fill: none; stroke: #000000; stroke-width: 2"/>
    <path d="M 120.506496 183.228955 
L 120.506496 167.269483 
" clip-path="url(#pefbaa149fc)" style="fill: none; stroke: #000000; stroke-width: 2"/>
    <path d="M 130.412581 172.946895 
L 130.412581 160.973825 
" clip-path="url(#pefbaa149fc)" style="fill: none; stroke: #000000; stroke-width: 2"/>
    <path d="M 152.528492 212.187819 
L 152.528492 200.557693 
" clip-path="url(#pefbaa149fc)" style="fill: none; stroke: #000000; stroke-width: 2"/>
    <path d="M 143.313529 171.280283 
L 143.313529 159.516565 
" clip-path="url(#pefbaa149fc)" style="fill: none; stroke: #000000; stroke-width: 2"/>
    <path d="M 165.42944 150.848388 
L 165.42944 139.084708 
" clip-path="url(#pefbaa149fc)" style="fill: none; stroke: #000000; stroke-width: 2"/>
    <path d="M 161.282707 197.025443 
L 161.282707 182.444838 
" clip-path="url(#pefbaa149fc)" style="fill: none; stroke: #000000; stroke-width: 2"/>
    <path d="M 158.518218 159.404985 
L 158.518218 151.621161 
" clip-path="url(#pefbaa149fc)" style="fill: none; stroke: #000000; stroke-width: 2"/>
    <path d="M 140.318666 183.080491 
L 140.318666 169.693532 
" clip-path="url(#pefbaa149fc)" style="fill: none; stroke: #000000; stroke-width: 2"/>
    <path d="M 189.618717 163.439407 
L 189.618717 151.751901 
" clip-path="url(#pefbaa149fc)" style="fill: none; stroke: #000000; stroke-width: 2"/>
    <path d="M 113.825648 209.688122 
L 113.825648 196.694458 
" clip-path="url(#pefbaa149fc)" style="fill: none; stroke: #000000; stroke-width: 2"/>
    <path d="M 165.42944 185.724514 
L 165.42944 166.676814 
" clip-path="url(#pefbaa149fc)" style="fill: none; stroke: #000000; stroke-width: 2"/>
    <path d="M 148.151385 197.60362 
L 148.151385 186.257591 
" clip-path="url(#pefbaa149fc)" style="fill: none; stroke: #000000; stroke-width: 2"/>
    <path d="M 148.381759 191.242801 
L 148.381759 165.102531 
" clip-path="url(#pefbaa149fc)" style="fill: none; stroke: #000000; stroke-width: 2"/>
    <path d="M 198.603306 136.720901 
L 198.603306 120.844638 
" clip-path="url(#pefbaa149fc)" style="fill: none; stroke: #000000; stroke-width: 2"/>
    <path d="M 148.381759 194.03836 
L 148.381759 178.967625 
" clip-path="url(#pefbaa149fc)" style="fill: none; stroke: #000000; stroke-width: 2"/>
    <path d="M 143.543903 191.765199 
L 143.543903 180.310075 
" clip-path="url(#pefbaa149fc)" style="fill: none; stroke: #000000; stroke-width: 2"/>
    <path d="M 118.433129 217.171466 
L 118.433129 209.3412 
" clip-path="url(#pefbaa149fc)" style="fill: none; stroke: #000000; stroke-width: 2"/>
   </g>
   <g id="line2d_14">
    <defs>
     <path id="m531205bb46" d="M 0 3 
C 0.795609 3 1.55874 2.683901 2.12132 2.12132 
C 2.683901 1.55874 3 0.795609 3 0 
C 3 -0.795609 2.683901 -1.55874 2.12132 -2.12132 
C 1.55874 -2.683901 0.795609 -3 0 -3 
C -0.795609 -3 -1.55874 -2.683901 -2.12132 -2.12132 
C -2.683901 -1.55874 -3 -0.795609 -3 0 
C -3 0.795609 -2.683901 1.55874 -2.12132 2.12132 
C -1.55874 2.683901 -0.795609 3 0 3 
z
" style="stroke: #000000"/>
    </defs>
    <g clip-path="url(#pefbaa149fc)">
     <use xlink:href="#m531205bb46" x="107.605548" y="158.464164" style="stroke: #000000"/>
     <use xlink:href="#m531205bb46" x="129.491085" y="246.043171" style="stroke: #000000"/>
     <use xlink:href="#m531205bb46" x="149.764003" y="225.164369" style="stroke: #000000"/>
     <use xlink:href="#m531205bb46" x="197.68181" y="94.19671" style="stroke: #000000"/>
     <use xlink:href="#m531205bb46" x="131.564451" y="240.640899" style="stroke: #000000"/>
     <use xlink:href="#m531205bb46" x="120.506496" y="175.249219" style="stroke: #000000"/>
     <use xlink:href="#m531205bb46" x="130.412581" y="166.96036" style="stroke: #000000"/>
     <use xlink:href="#m531205bb46" x="152.528492" y="206.372756" style="stroke: #000000"/>
     <use xlink:href="#m531205bb46" x="143.313529" y="165.398424" style="stroke: #000000"/>
     <use xlink:href="#m531205bb46" x="165.42944" y="144.966548" style="stroke: #000000"/>
     <use xlink:href="#m531205bb46" x="161.282707" y="189.735141" style="stroke: #000000"/>
     <use xlink:href="#m531205bb46" x="158.518218" y="155.513073" style="stroke: #000000"/>
     <use xlink:href="#m531205bb46" x="140.318666" y="176.387011" style="stroke: #000000"/>
     <use xlink:href="#m531205bb46" x="189.618717" y="157.595654" style="stroke: #000000"/>
     <use xlink:href="#m531205bb46" x="113.825648" y="203.19129" style="stroke: #000000"/>
     <use xlink:href="#m531205bb46" x="165.42944" y="176.200664" style="stroke: #000000"/>
     <use xlink:href="#m531205bb46" x="148.151385" y="191.930606" style="stroke: #000000"/>
     <use xlink:href="#m531205bb46" x="148.381759" y="178.172666" style="stroke: #000000"/>
     <use xlink:href="#m531205bb46" x="198.603306" y="128.782769" style="stroke: #000000"/>
     <use xlink:href="#m531205bb46" x="148.381759" y="186.502993" style="stroke: #000000"/>
     <use xlink:href="#m531205bb46" x="143.543903" y="186.037637" style="stroke: #000000"/>
     <use xlink:href="#m531205bb46" x="118.433129" y="213.256333" style="stroke: #000000"/>
    </g>
   </g>
   <g id="legend_1">
    <g id="line2d_15">
     <path d="M 324.398667 249.496062 
L 334.398667 249.496062 
L 344.398667 249.496062 
" style="fill: none; stroke: #000000; stroke-width: 1.5; stroke-linecap: square"/>
    </g>
    <g id="text_19">
     <!-- Identity line -->
     <g transform="translate(352.398667 252.996062) scale(0.1 -0.1)">
      <defs>
       <path id="DejaVuSans-49" d="M 628 4666 
L 1259 4666 
L 1259 0 
L 628 0 
L 628 4666 
z
" transform="scale(0.015625)"/>
       <path id="DejaVuSans-69" d="M 603 3500 
L 1178 3500 
L 1178 0 
L 603 0 
L 603 3500 
z
M 603 4863 
L 1178 4863 
L 1178 4134 
L 603 4134 
L 603 4863 
z
" transform="scale(0.015625)"/>
      </defs>
      <use xlink:href="#DejaVuSans-49"/>
      <use xlink:href="#DejaVuSans-64" x="29.492188"/>
      <use xlink:href="#DejaVuSans-65" x="92.96875"/>
      <use xlink:href="#DejaVuSans-6e" x="154.492188"/>
      <use xlink:href="#DejaVuSans-74" x="217.871094"/>
      <use xlink:href="#DejaVuSans-69" x="257.080078"/>
      <use xlink:href="#DejaVuSans-74" x="284.863281"/>
      <use xlink:href="#DejaVuSans-79" x="324.072266"/>
      <use xlink:href="#DejaVuSans-20" x="383.251953"/>
      <use xlink:href="#DejaVuSans-6c" x="415.039062"/>
      <use xlink:href="#DejaVuSans-69" x="442.822266"/>
      <use xlink:href="#DejaVuSans-6e" x="470.605469"/>
      <use xlink:href="#DejaVuSans-65" x="533.984375"/>
     </g>
    </g>
    <g id="patch_7">
     <path d="M 324.398667 267.674187 
L 344.398667 267.674187 
L 344.398667 260.674187 
L 324.398667 260.674187 
z
" style="fill: #a9a9a9; opacity: 0.5"/>
    </g>
    <g id="text_20">
     <!-- Within 1 kcal/mol -->
     <g transform="translate(352.398667 267.674187) scale(0.1 -0.1)">
      <defs>
       <path id="DejaVuSans-57" d="M 213 4666 
L 850 4666 
L 1831 722 
L 2809 4666 
L 3519 4666 
L 4500 722 
L 5478 4666 
L 6119 4666 
L 4947 0 
L 4153 0 
L 3169 4050 
L 2175 0 
L 1381 0 
L 213 4666 
z
" transform="scale(0.015625)"/>
       <path id="DejaVuSans-68" d="M 3513 2113 
L 3513 0 
L 2938 0 
L 2938 2094 
Q 2938 2591 2744 2837 
Q 2550 3084 2163 3084 
Q 1697 3084 1428 2787 
Q 1159 2491 1159 1978 
L 1159 0 
L 581 0 
L 581 4863 
L 1159 4863 
L 1159 2956 
Q 1366 3272 1645 3428 
Q 1925 3584 2291 3584 
Q 2894 3584 3203 3211 
Q 3513 2838 3513 2113 
z
" transform="scale(0.015625)"/>
       <path id="DejaVuSans-63" d="M 3122 3366 
L 3122 2828 
Q 2878 2963 2633 3030 
Q 2388 3097 2138 3097 
Q 1578 3097 1268 2742 
Q 959 2388 959 1747 
Q 959 1106 1268 751 
Q 1578 397 2138 397 
Q 2388 397 2633 464 
Q 2878 531 3122 666 
L 3122 134 
Q 2881 22 2623 -34 
Q 2366 -91 2075 -91 
Q 1284 -91 818 406 
Q 353 903 353 1747 
Q 353 2603 823 3093 
Q 1294 3584 2113 3584 
Q 2378 3584 2631 3529 
Q 2884 3475 3122 3366 
z
" transform="scale(0.015625)"/>
       <path id="DejaVuSans-6d" d="M 3328 2828 
Q 3544 3216 3844 3400 
Q 4144 3584 4550 3584 
Q 5097 3584 5394 3201 
Q 5691 2819 5691 2113 
L 5691 0 
L 5113 0 
L 5113 2094 
Q 5113 2597 4934 2840 
Q 4756 3084 4391 3084 
Q 3944 3084 3684 2787 
Q 3425 2491 3425 1978 
L 3425 0 
L 2847 0 
L 2847 2094 
Q 2847 2600 2669 2842 
Q 2491 3084 2119 3084 
Q 1678 3084 1418 2786 
Q 1159 2488 1159 1978 
L 1159 0 
L 581 0 
L 581 3500 
L 1159 3500 
L 1159 2956 
Q 1356 3278 1631 3431 
Q 1906 3584 2284 3584 
Q 2666 3584 2933 3390 
Q 3200 3197 3328 2828 
z
" transform="scale(0.015625)"/>
      </defs>
      <use xlink:href="#DejaVuSans-57"/>
      <use xlink:href="#DejaVuSans-69" x="96.626953"/>
      <use xlink:href="#DejaVuSans-74" x="124.410156"/>
      <use xlink:href="#DejaVuSans-68" x="163.619141"/>
      <use xlink:href="#DejaVuSans-69" x="226.998047"/>
      <use xlink:href="#DejaVuSans-6e" x="254.78125"/>
      <use xlink:href="#DejaVuSans-20" x="318.160156"/>
      <use xlink:href="#DejaVuSans-31" x="349.947266"/>
      <use xlink:href="#DejaVuSans-20" x="413.570312"/>
      <use xlink:href="#DejaVuSans-6b" x="445.357422"/>
      <use xlink:href="#DejaVuSans-63" x="503.267578"/>
      <use xlink:href="#DejaVuSans-61" x="558.248047"/>
      <use xlink:href="#DejaVuSans-6c" x="619.527344"/>
      <use xlink:href="#DejaVuSans-2f" x="647.310547"/>
      <use xlink:href="#DejaVuSans-6d" x="681.001953"/>
      <use xlink:href="#DejaVuSans-6f" x="778.414062"/>
      <use xlink:href="#DejaVuSans-6c" x="839.595703"/>
     </g>
    </g>
    <g id="patch_8">
     <path d="M 324.398667 282.352312 
L 344.398667 282.352312 
L 344.398667 275.352312 
L 324.398667 275.352312 
z
" style="fill: #d3d3d3; opacity: 0.5"/>
    </g>
    <g id="text_21">
     <!-- Within 2 kcal/mol -->
     <g transform="translate(352.398667 282.352312) scale(0.1 -0.1)">
      <use xlink:href="#DejaVuSans-57"/>
      <use xlink:href="#DejaVuSans-69" x="96.626953"/>
      <use xlink:href="#DejaVuSans-74" x="124.410156"/>
      <use xlink:href="#DejaVuSans-68" x="163.619141"/>
      <use xlink:href="#DejaVuSans-69" x="226.998047"/>
      <use xlink:href="#DejaVuSans-6e" x="254.78125"/>
      <use xlink:href="#DejaVuSans-20" x="318.160156"/>
      <use xlink:href="#DejaVuSans-32" x="349.947266"/>
      <use xlink:href="#DejaVuSans-20" x="413.570312"/>
      <use xlink:href="#DejaVuSans-6b" x="445.357422"/>
      <use xlink:href="#DejaVuSans-63" x="503.267578"/>
      <use xlink:href="#DejaVuSans-61" x="558.248047"/>
      <use xlink:href="#DejaVuSans-6c" x="619.527344"/>
      <use xlink:href="#DejaVuSans-2f" x="647.310547"/>
      <use xlink:href="#DejaVuSans-6d" x="681.001953"/>
      <use xlink:href="#DejaVuSans-6f" x="778.414062"/>
      <use xlink:href="#DejaVuSans-6c" x="839.595703"/>
     </g>
    </g>
   </g>
  </g>
 </g>
 <defs>
  <clipPath id="pefbaa149fc">
   <rect x="43.642188" y="22.32" width="266.112" height="266.112"/>
  </clipPath>
 </defs>
</svg>
